<?xml version="1.0" standalone="no"?>
<!DOCTYPE svg PUBLIC "-//W3C//DTD SVG 20010904//EN"
 "http://www.w3.org/TR/2001/REC-SVG-20010904/DTD/svg10.dtd">
<svg version="1.0" xmlns="http://www.w3.org/2000/svg"
 width="314.000000pt" height="104.000000pt" viewBox="0 0 314.000000 104.000000"
 preserveAspectRatio="xMidYMid meet">

<g transform="translate(0.000000,104.000000) scale(0.100000,-0.100000)"
fill="#000000" stroke="none">
<path d="M0 520 l0 -520 1570 0 1570 0 0 520 0 520 -1570 0 -1570 0 0 -520z
m1065 140 c0 -31 -3 -35 -28 -38 -32 -4 -57 13 -57 37 0 27 22 42 55 39 27 -3
30 -6 30 -38z m-549 11 c31 -14 47 -30 63 -63 28 -59 29 -165 1 -227 -11 -24
-20 -45 -20 -47 0 -2 18 -13 40 -24 34 -17 40 -25 40 -51 0 -30 -2 -31 -30
-25 -17 3 -50 19 -73 34 -38 26 -49 28 -107 25 -49 -3 -74 0 -100 14 -124 65
-115 313 15 369 43 19 123 17 171 -5z m224 -187 c0 -131 22 -164 77 -112 21
19 23 30 23 115 l0 94 38 -3 37 -3 0 -135 0 -135 -32 -3 c-25 -2 -33 1 -33 12
0 13 -5 13 -32 -4 -68 -41 -132 -17 -148 55 -11 46 -13 198 -3 208 3 4 21 7
40 7 l33 0 0 -96z m320 -44 l0 -140 -35 0 -35 0 0 140 0 140 35 0 35 0 0 -140z
m250 108 c0 -23 -16 -57 -50 -108 l-50 -75 55 -3 c54 -3 55 -4 55 -32 l0 -30
-100 0 -100 0 0 28 c0 16 22 59 55 110 l55 82 -49 0 c-41 0 -51 4 -56 20 -11
34 3 40 96 40 l89 0 0 -32z"/>
<path d="M374 615 c-34 -23 -47 -68 -42 -146 3 -63 7 -74 31 -95 41 -35 101
-29 134 15 34 45 27 178 -12 217 -28 28 -79 32 -111 9z"/>
</g>
</svg>
